<svg width="16" height="15" viewBox="0 0 16 15" fill="none" xmlns="http://www.w3.org/2000/svg">
<path opacity="0.3" fill-rule="evenodd" clip-rule="evenodd" d="M0.5 0H12.5C12.7765 0 13 0.223502 13 0.500004V9.00008C13 9.27658 12.7765 9.50008 12.5 9.50008H7.188L3.329 12.8766C3.18 13.0066 2.969 13.0356 2.7935 12.9551C2.6145 12.8741 2.5 12.6966 2.5 12.5001V9.50008H0.5C0.2235 9.50008 0 9.27658 0 9.00008V0.500004C0 0.223502 0.2235 0 0.5 0ZM14 4.00004H15.5C15.776 4.00004 16 4.22404 16 4.50004V12.0001C16 12.2761 15.776 12.5001 15.5 12.5001H14V14.5001C14 14.6876 13.8955 14.8591 13.729 14.9446C13.559 15.0311 13.36 15.0146 13.2095 14.9066L9.84 12.5001H5.278L7.564 10.5001H13C13.5525 10.5001 14 10.0526 14 9.50009V4.00004Z" fill="black"/>
</svg>
