<svg width="30" height="34" viewBox="0 0 30 34" fill="none" xmlns="http://www.w3.org/2000/svg">
<path fill-rule="evenodd" clip-rule="evenodd" d="M28.6875 17H21.25V8.5C21.25 7.8625 20.825 7.4375 20.1875 7.4375H18.0625V5.3125C18.0625 4.675 17.6375 4.25 17 4.25H15.9375V1.0625C15.9375 0.425 15.5125 0 14.875 0C14.2375 0 13.8125 0.425 13.8125 1.0625V4.25H12.75C12.1125 4.25 11.6875 4.675 11.6875 5.3125V7.4375H9.5625C8.925 7.4375 8.5 7.8625 8.5 8.5V20.1875H1.0625C0.425 20.1875 0 20.6125 0 21.25V32.9375C0 33.575 0.425 34 1.0625 34H9.5625H12.75H17H20.1875H28.6875C29.325 34 29.75 33.575 29.75 32.9375V18.0625C29.75 17.425 29.325 17 28.6875 17ZM6.375 29.75H3.1875V27.625H6.375V29.75ZM6.375 26.5625H3.1875V24.4375H6.375V26.5625ZM10.625 29.75H7.4375V27.625H10.625V29.75ZM10.625 26.5625H7.4375V24.4375H10.625V26.5625ZM15.9375 18.0625V31.875H13.8125V21.25C13.8125 20.6125 13.3875 20.1875 12.75 20.1875H10.625V9.5625H12.75C13.3875 9.5625 13.8125 9.1375 13.8125 8.5V6.375H15.9375V8.5C15.9375 9.1375 16.3625 9.5625 17 9.5625H19.125V17H17C16.3625 17 15.9375 17.425 15.9375 18.0625ZM22.3125 29.75H19.125V27.625H22.3125V29.75ZM22.3125 26.5625H19.125V24.4375H22.3125V26.5625ZM22.3125 23.375H19.125V21.25H22.3125V23.375ZM26.5625 29.75H23.375V27.625H26.5625V29.75ZM26.5625 26.5625H23.375V24.4375H26.5625V26.5625ZM26.5625 23.375H23.375V21.25H26.5625V23.375Z" fill="white"/>
</svg>
