<svg width="26" height="26" viewBox="0 0 26 26" fill="none" xmlns="http://www.w3.org/2000/svg">
<path id="icon-help" opacity="0.5" fill-rule="evenodd" clip-rule="evenodd" d="M13 26C20.1797 26 26 20.1797 26 13C26 5.8203 20.1797 0 13 0C5.8203 0 0 5.8203 0 13C0 20.1797 5.8203 26 13 26ZM13 21.125C13.8975 21.125 14.625 20.3975 14.625 19.5C14.625 18.6025 13.8975 17.875 13 17.875C12.1025 17.875 11.375 18.6025 11.375 19.5C11.375 20.3975 12.1025 21.125 13 21.125ZM13 8.125C12.35 8.125 11.8625 8.45 11.5375 8.9375L10.725 10.4L7.9625 8.775L8.775 7.3125C9.5875 5.85 11.2125 4.875 13 4.875C15.7625 4.875 17.875 6.9875 17.875 9.75C17.875 12.025 16.4125 13 15.4375 13.65C14.625 14.1375 14.625 14.3 14.625 14.625V16.25H11.375V14.625C11.375 12.5125 12.675 11.5375 13.65 10.8875C14.4625 10.4 14.625 10.2375 14.625 9.75C14.625 8.775 13.975 8.125 13 8.125Z" fill="white"/>
</svg>
