<svg width="16" height="14" viewBox="0 0 16 14" fill="none" xmlns="http://www.w3.org/2000/svg">
<path opacity="0.3" fill-rule="evenodd" clip-rule="evenodd" d="M8 3C8 4.6185 6.6895 6.5 5 6.5C3.3105 6.5 2 4.6185 2 3C2 1.3455 3.3455 0 5 0C6.6545 0 8 1.3455 8 3ZM10 2H15.5C15.776 2 16 2.2235 16 2.5C16 2.7765 15.776 3 15.5 3H10C9.724 3 9.5 2.7765 9.5 2.5C9.5 2.2235 9.724 2 10 2ZM10 5H15.5C15.776 5 16 5.2235 16 5.5C16 5.7765 15.776 6 15.5 6H10C9.724 6 9.5 5.7765 9.5 5.5C9.5 5.2235 9.724 5 10 5ZM15.5 8H12.5C12.224 8 12 8.2235 12 8.5C12 8.7765 12.224 9 12.5 9H15.5C15.776 9 16 8.7765 16 8.5C16 8.2235 15.776 8 15.5 8ZM12.5 11H15.5C15.776 11 16 11.2235 16 11.5C16 11.7765 15.776 12 15.5 12H12.5C12.224 12 12 11.7765 12 11.5C12 11.2235 12.224 11 12.5 11ZM8.2045 7.9865C6.0045 7.3355 3.929 7.348 1.7915 7.9805C0.7195 8.298 0 9.2615 0 10.379V13.5C0 13.7765 0.224 14 0.5 14H9.5C9.776 14 10 13.7765 10 13.5V10.386C10 9.268 9.2785 8.3035 8.2045 7.9865Z" fill="black"/>
</svg>
