<svg width="34" height="36" viewBox="0 0 34 36" fill="none" xmlns="http://www.w3.org/2000/svg">
<g opacity="0.5">
<path d="M4 23V13H20V23" stroke="#444444" stroke-width="2" stroke-linecap="square"/>
<path fill-rule="evenodd" clip-rule="evenodd" d="M23 27V35H1V27H8V30H16V27H23Z" stroke="#444444" stroke-width="2" stroke-linecap="square"/>
<path d="M9 18H15" stroke="#444444" stroke-width="2" stroke-linecap="square"/>
<path d="M9 22H15" stroke="#444444" stroke-width="2" stroke-linecap="square"/>
</g>
<rect x="13" y="1.11621" width="20" height="20" rx="10" fill="#2995DA" stroke="white" stroke-width="2"/>
<path d="M23.036 14.2482C24.741 14.2482 25.808 13.3572 25.808 12.1032C25.808 10.9702 24.807 10.3982 24.103 10.3212C24.851 10.2002 25.687 9.62821 25.687 8.63821C25.687 7.41721 24.631 6.66921 23.047 6.66921C21.826 6.66921 20.935 7.15321 20.363 7.82421L21.023 8.62721C21.551 8.08821 22.167 7.81321 22.926 7.81321C23.74 7.81321 24.411 8.16521 24.411 8.83621C24.411 9.50721 23.762 9.80421 22.893 9.80421C22.607 9.80421 22.178 9.80421 22.057 9.79321V10.9592C22.167 10.9482 22.585 10.9372 22.893 10.9372C23.949 10.9372 24.521 11.2562 24.521 11.9822C24.521 12.6532 23.96 13.1042 22.992 13.1042C22.211 13.1042 21.441 12.7632 20.968 12.2132L20.264 13.0602C20.77 13.7202 21.738 14.2482 23.036 14.2482Z" fill="white"/>
</svg>
