<svg width="16" height="16" viewBox="0 0 16 16" fill="none" xmlns="http://www.w3.org/2000/svg">
<path opacity="0.3" fill-rule="evenodd" clip-rule="evenodd" d="M8.00005 13.5129L11.8601 15.5419C12.5861 15.9239 13.4531 15.3109 13.3121 14.4879L12.5751 10.1889L15.6991 7.14395C16.2921 6.56395 15.9621 5.55695 15.1441 5.43795L10.8281 4.81095L8.89705 0.899945C8.56105 0.216945 7.44005 0.216945 7.10405 0.899945L5.17305 4.81195L0.857054 5.43895C0.0390535 5.55795 -0.291947 6.56495 0.302053 7.14495L3.42605 10.1889L2.68905 14.4879C2.54805 15.3069 3.41305 15.9289 4.14005 15.5419L8.00005 13.5129ZM10.9981 12.8289L8.46605 11.4979C8.17405 11.3439 7.82605 11.3439 7.53405 11.4979L5.00205 12.8289L5.48505 10.0089C5.54105 9.68495 5.43305 9.35295 5.19805 9.12395L3.14905 7.12595L5.98005 6.71495C6.30605 6.66795 6.58705 6.46295 6.73305 6.16795L8.00005 3.60195L9.26705 6.16795C9.41205 6.46295 9.69305 6.66795 10.0201 6.71495L12.8511 7.12595L10.8021 9.12395C10.5671 9.35394 10.4591 9.68495 10.5151 10.0089L10.9981 12.8289Z" fill="#444444"/>
</svg>

